<svg width="101" height="101" viewBox="0 0 101 101" fill="none" xmlns="http://www.w3.org/2000/svg">
    <path d="M24.4997 25.2465C24.4997 11.4394 35.6926 0.246483 49.4997 0.246483C63.3069 0.246483 74.4997 11.4394 74.4997 25.2465C74.4997 39.0536 63.3069 50.2465 49.4997 50.2465C35.6926 50.2465 24.4997 39.0536 24.4997 25.2465Z" fill="black" fill-opacity="0.5"/>
    <path d="M25.5661 75.2465C25.5661 61.4394 36.759 50.2465 50.5661 50.2465C64.3732 50.2465 75.5661 61.4394 75.5661 75.2465C75.5661 89.0536 64.3732 100.246 50.5661 100.246C36.759 100.246 25.5661 89.0536 25.5661 75.2465Z" fill="black" fill-opacity="0.5"/>
    <path d="M50.5661 50.2465C50.5661 36.4394 61.759 25.2465 75.5661 25.2465C89.3732 25.2465 100.566 36.4394 100.566 50.2465C100.566 64.0536 89.3732 75.2465 75.5661 75.2465C61.759 75.2465 50.5661 64.0536 50.5661 50.2465Z" fill="black" fill-opacity="0.5"/>
    <path d="M0.566162 50.2465C0.566162 36.4394 11.759 25.2465 25.5662 25.2465C39.3733 25.2465 50.5661 36.4394 50.5661 50.2465C50.5661 64.0536 39.3732 75.2465 25.5661 75.2465C11.759 75.2465 0.566162 64.0536 0.566162 50.2465Z" fill="black" fill-opacity="0.5"/>
</svg>
